<?xml version="1.0" encoding="UTF-8" standalone="no"?>
<!DOCTYPE svg PUBLIC "-//W3C//DTD SVG 1.1//EN" "http://www.w3.org/Graphics/SVG/1.1/DTD/svg11.dtd">
<!-- Generated by Microsoft Visio, SVG Export Storm Icon.svg Page-1 -->
<svg xmlns="http://www.w3.org/2000/svg" xmlns:xlink="http://www.w3.org/1999/xlink" xmlns:ev="http://www.w3.org/2001/xml-events"
		xmlns:v="http://schemas.microsoft.com/visio/2003/SVGExtensions/" width="2.47892in" height="2.47892in"
		viewBox="0 0 178.482 178.482" xml:space="preserve" color-interpolation-filters="sRGB" class="st5">
	<v:documentProperties v:langID="2057" v:metric="true" v:viewMarkup="false">
		<v:userDefs>
			<v:ud v:nameU="msvNoAutoConnect" v:val="VT0(1):26"/>
		</v:userDefs>
	</v:documentProperties>

	<style type="text/css">
	<![CDATA[
		.st1 {fill:#fff2cc;stroke:#fff2cc;stroke-linecap:round;stroke-linejoin:round;stroke-width:6}
		.st2 {fill:#7f6000;stroke:#ffffff;stroke-linecap:round;stroke-linejoin:round;stroke-width:1.5}
		.st3 {fill:none;stroke:#7f6000;stroke-linecap:round;stroke-linejoin:round;stroke-width:2.25}
		.st4 {fill:#221a00;stroke:#ffffff;stroke-linecap:round;stroke-linejoin:round;stroke-width:1.5}
		.st5 {fill:none;fill-rule:evenodd;font-size:12px;overflow:visible;stroke-linecap:square;stroke-miterlimit:3}
	]]>
	</style>

	<g v:mID="0" v:index="1" v:groupContext="foregroundPage">
		<title>Page-1</title>
		<v:pageProperties v:drawingScale="0.0393701" v:pageScale="0.0393701" v:drawingUnits="24" v:shadowOffsetX="8.50394"
				v:shadowOffsetY="-8.50394"/>
		<g id="shape1014-1" v:mID="1014" v:groupContext="shape" transform="translate(18.375,-18.375)">
			<title>Sheet.1014</title>
			<ellipse cx="70.8661" cy="107.616" rx="70.8661" ry="70.8661" class="st1"/>
		</g>
		<g id="shape11-3" v:mID="11" v:groupContext="shape" transform="translate(43.2785,-18.7555)">
			<title>Sheet.11</title>
			<path d="M0 162.37 C0.3 161.49 2.52 159.96 4.91 158.75 C10.5 155.92 16.99 154.88 23.32 154.32 C34.77 153.32 45.73 153.9
						 56.99 153.89 C65.11 153.88 73.38 153.57 80.29 154.21 C81.77 154.34 83.2 154.52 84.84 154.79 C86.34 155.04
						 88.02 155.36 89.44 155.82 C92.11 156.68 93.89 158.03 96.02 159.2 C94.77 160.31 93.51 161.4 92.28 162.39
						 C90.8 163.58 89.37 164.63 87.77 165.7 C85.05 167.53 81.81 169.4 78.89 170.87 C75.91 172.37 73.27 173.44
						 70.12 174.49 C68.44 175.06 66.61 175.62 64.8 176.1 C61.97 176.85 59.19 177.43 56.05 177.83 C52.62 178.27
						 48.76 178.5 45.22 178.48 C41.39 178.46 37.93 178.15 34.39 177.53 C32.41 177.19 30.4 176.75 28.42 176.25
						 C22.95 174.86 17.64 172.98 12.76 170.55 C7.96 168.15 3.57 165.23 -0 162.37 Z" class="st2"/>
		</g>
		<g id="shape2-5" v:mID="2" v:groupContext="shape" transform="translate(18.375,-18.375)">
			<title>Sheet.2</title>
			<ellipse cx="70.8661" cy="107.616" rx="70.8661" ry="70.8661" class="st3"/>
		</g>
		<g id="shape5-7" v:mID="5" v:groupContext="shape" transform="translate(40.0878,-87.6083)">
			<title>Sheet.5</title>
			<path d="M61 178.48 L64.22 178.48 C64.48 176.44 64.82 174.39 65.12 172.3 C65.35 170.69 65.55 169.06 65.89 167.53 C66.42
						 165.23 67.28 163.14 68.08 161.09 C68.77 159.35 69.41 157.65 70.28 155.93 C71.14 154.21 72.22 152.48 73.24
						 150.78 C74.18 149.2 75.06 147.66 76.14 146.27 C78.37 143.38 81.42 141.12 85 140.08 C86.78 139.56 88.69 139.35
						 90.48 139.66 C93.34 140.16 95.88 142.01 98.21 142.88 C99.95 140.41 99.63 134.33 97.39 131.39 C96.8 130.62
						 96.07 130.06 95.17 129.66 C92.79 128.61 89.15 128.67 86.27 129.52 C84.05 130.17 82.28 131.29 80.76 132.56
						 C78.6 134.34 76.91 136.4 75.22 138.68 C73.15 141.45 71.07 144.54 69.28 148.17 C67.92 150.95 66.72 154.05
						 65.6 156.46 C64.73 158.34 63.9 159.8 63.41 162.05 L62.12 162.05 C60.82 159.63 59.69 157.12 58.25 154.59
						 C55.75 150.18 52.33 145.74 48.45 142.08 C46.46 140.2 44.34 138.53 42.68 137.23 C41.84 136.59 41.12 136.03
						 40.26 135.44 C38.56 134.27 36.3 132.96 33.95 131.76 C31.71 130.61 29.38 129.55 26.85 128.63 C24.97 127.95
						 22.97 127.34 21 126.81 C19.48 126.4 17.98 126.04 16.53 125.65 C14.87 125.2 13.28 124.72 11.54 124.2 C10.17
						 123.79 8.71 123.37 7.35 123.55 C5.72 123.78 4.24 124.88 3.06 126.13 C2.07 127.18 1.28 128.34 0.77 129.58
						 C-1.04 134.01 0.75 139.5 1.98 144.49 C3.37 143.34 4.92 142.45 6.33 141.71 C8.29 140.68 10.01 139.93 11.98
						 139.35 C17.07 137.86 23.8 137.58 29.46 138.82 C32.06 139.39 34.45 140.28 36.68 141.24 C39.2 142.33 41.54
						 143.5 43.83 145.21 C47.47 147.93 51.02 152 53.48 155.68 C54.83 157.7 55.85 159.61 56.68 161.62 C58.73 166.57
						 59.66 172.19 61 178.48 Z" class="st2"/>
		</g>
		<g id="shape7-9" v:mID="7" v:groupContext="shape" transform="translate(84.3319,-111.771)">
			<title>Sheet.7</title>
			<path d="M18.04 178.48 C19.01 175.58 19.84 173.22 20.67 171.58 C21 170.93 21.34 170.39 21.9 169.38 C22.95 167.5 24.81
						 163.98 26.42 161.73 C24.48 160.92 22.39 159.98 20.12 159.32 C18.35 158.81 16.48 158.47 14.15 158.18 C11.84
						 157.89 9.08 157.65 6.88 157.56 C4.24 157.44 2.42 157.54 0 157.54 C1.43 158.56 2.62 159.44 4.24 160.63 C5.14
						 161.29 6.18 162.05 7.53 163.46 C8.08 164.04 8.68 164.72 9.36 165.54 C10.34 166.73 11.47 168.19 12.36 169.39
						 C13.81 171.34 14.58 172.57 15.32 173.74 C16.2 175.14 17.01 176.43 18.04 178.48 Z" class="st4"/>
		</g>
		<g id="shape8-11" v:mID="8" v:groupContext="shape" transform="translate(120.415,-66.3452)">
			<title>Sheet.8</title>
			<ellipse cx="8.69856" cy="162.374" rx="8.69856" ry="16.1084" class="st2"/>
		</g>
		<g id="shape9-13" v:mID="9" v:groupContext="shape" transform="translate(50.182,-68.6004)">
			<title>Sheet.9</title>
			<ellipse cx="13.8533" cy="162.374" rx="13.8533" ry="16.1084" class="st2"/>
		</g>
		<g id="shape10-15" v:mID="10" v:groupContext="shape" transform="translate(97.863,-47.015)">
			<title>Sheet.10</title>
			<ellipse cx="4.51036" cy="162.374" rx="4.51036" ry="16.1084" class="st4"/>
		</g>
	</g>
</svg>
